<svg width="343" height="92" viewBox="0 0 343 92" fill="none" xmlns="http://www.w3.org/2000/svg">
<path d="M117.624 0H26.8693C26.8693 0 34.8742 2.32474 36.6786 21.5345L14.2058 9.41021C14.2058 9.41021 7.4038 20.8003 8.80356 45.0155C8.80356 45.0155 24.3322 30.4997 37.0176 27.5966C37.0285 28.1416 37.0395 28.7089 37.0395 29.2873C35.1257 29.8212 28.2691 32.2572 16.207 41.9677C16.207 41.9677 17.0053 54.181 28.8158 62.3231C28.8158 62.3231 30.9811 46.1167 37.455 39.2982L38.8001 62.5567C39.7515 79.0858 53.2133 91.9998 69.4966 91.9998H115.929C132.213 91.9998 145.664 79.0969 146.626 62.5567L148.332 33.1026C149.371 15.1386 135.329 0 117.635 0L117.624 0Z" fill="#C48CDF"/>
<path d="M133.908 25.5942C119.921 25.5942 92.9644 49.1309 92.9644 49.1309C92.9644 49.1309 65.9971 25.5942 52.0213 25.5942C52.0213 25.5942 47.8548 66.2272 72.4928 66.394H72.5038C74.505 66.394 76.4844 65.9602 78.3216 65.126C82.5099 63.2017 90.3399 59.798 92.9644 59.798C95.589 59.798 103.419 63.2128 107.607 65.126C109.434 65.9602 111.413 66.394 113.425 66.394H113.436C138.074 66.2272 133.908 25.5942 133.908 25.5942Z" fill="#FAFAFA"/>
<path d="M109.532 62.7127C113.935 62.7127 117.504 57.643 117.504 51.3893C117.504 45.1356 113.935 40.0659 109.532 40.0659C105.129 40.0659 101.56 45.1356 101.56 51.3893C101.56 57.643 105.129 62.7127 109.532 62.7127Z" fill="#181818"/>
<path d="M76.3857 62.7127C80.7886 62.7127 84.3578 57.643 84.3578 51.3893C84.3578 45.1356 80.7886 40.0659 76.3857 40.0659C71.9828 40.0659 68.4136 45.1356 68.4136 51.3893C68.4136 57.643 71.9828 62.7127 76.3857 62.7127Z" fill="#181818"/>
<path d="M182.664 17L194.016 50.1078V17H209.315V75H190.475L180.168 44.874V75H164.869V42.4605C164.869 27.8044 164.869 19.5678 159.386 17H161.567H182.657H182.664Z" fill="#0BCA6C"/>
<path d="M230.013 46.235C230.013 50.1148 230.301 53.2018 230.876 55.51C231.45 57.8182 232.432 59.495 233.82 60.5403C235.209 61.5857 238.28 62.2171 240.741 62.4276V54.2471C240.741 49.4272 239.289 48.4801 234.234 46.235H253.733V71.5412C252.057 72.6427 249.884 73.4916 247.212 74.0949C244.541 74.6983 241.477 75 238.02 75C232.993 75 228.646 74.0599 224.979 72.1726C221.312 70.2853 218.486 67.2335 216.495 63.0169C214.504 58.8004 213.508 53.2298 213.508 46.3122C213.508 39.3946 214.581 33.7117 216.726 29.418C218.872 25.1243 221.88 21.9812 225.757 19.9887C229.635 17.9962 234.136 17 239.268 17C241.098 17 243.012 17.1543 245.004 17.4701C246.995 17.7858 249.035 18.1506 251.132 18.5715L249.715 31.4597C247.984 31.1439 246.504 30.8984 245.277 30.716C244.043 30.5336 242.802 30.4424 241.547 30.4424C238.827 30.4424 236.611 30.8914 234.907 31.7754C233.203 32.6664 231.962 34.252 231.177 36.5321C230.392 38.8123 229.999 42.0466 229.999 46.235H230.013Z" fill="#F659A0"/>
<path d="M311.199 31.8247C314.368 29.299 317.804 28.0361 321.506 28.0361C325.208 28.0361 328.279 29.1937 330.726 31.502C333.166 33.8102 334.386 37.276 334.386 41.8924V75.0002H319.894V44.2287C319.894 40.9523 318.414 39.3176 315.462 39.3176C314.284 39.3176 313.233 39.6123 312.321 40.2016V75.0002H297.828V47.0561C297.828 35.2765 297.744 31.2564 293.11 28.6816H310.141L311.185 31.8247H311.199Z" fill="#627CEE"/>
<path d="M279.374 74.9719C276.177 74.9719 273.274 74.6211 270.645 73.9125C268.015 73.211 265.758 71.9621 263.865 70.1731C261.972 68.3841 260.506 65.9215 259.482 62.7784C258.452 59.6353 257.94 55.6293 257.94 50.7532C257.94 42.8464 259.412 36.8759 262.364 32.8418C265.316 28.8077 270.063 26.7871 276.612 26.7871C282.564 26.7871 286.883 28.4288 289.562 31.7052C292.24 34.9816 293.579 39.8436 293.579 46.2841C293.579 47.7996 293.523 49.3571 293.418 50.9567C293.306 52.5563 293.117 54.0016 292.85 55.2995H273.449C273.772 58.604 274.69 60.814 276.212 61.9225C277.726 63.031 280.272 63.5852 283.84 63.5852C285.081 63.5852 286.372 63.48 287.697 63.2625C289.022 63.045 290.305 62.8065 291.553 62.5328V73.5828C289.66 73.9617 287.669 74.2844 285.586 74.558C283.504 74.8316 281.428 74.9649 279.374 74.9649V74.9719ZM277.179 37.5214C275.013 37.5214 273.744 40.447 273.365 46.2982H280.019C280.019 45.1055 279.977 43.8356 279.9 42.4816C279.816 41.1275 279.577 39.9629 279.171 38.9877C278.764 38.0125 278.098 37.5284 277.179 37.5284V37.5214Z" fill="#FF7723"/>
</svg>
